# xmcd
#
# Track frame offsets:
#	150
#	1449
#	22458
#	37425
#	52895
#	62409
#	79511
#	99575
#	116824
#	120905
#	135584
#	150805
#	165454
#	180575
#	203945
#	223772
#	245668
#	255935
#
# Disc length: 3691 seconds
#
# Revision: 1
# Processed by: cddbd v1.5.2PL0 Copyright (c) Steve Scherf et al.
# Submitted via: audiograbber 1.83.01
#
DISCID=ed0e6912
DTITLE=Mr. Sche - M-Town Immortal
DYEAR=2006
DGENRE=Rap
TTITLE0=Immortalized (Intro)
TTITLE1=Where Dem Hookaz At
TTITLE2=Shirts Off
TTITLE3=Who Run The Streets
TTITLE4=Interlude
TTITLE5=Memphis Shit (Tom Skeemask)
TTITLE6=My Streets (Al Kapone)
TTITLE7=Yall Soft
TTITLE8=Purp Break (Interlude)
TTITLE9=I Don't Give A Fuck
TTITLE10=My Eyes
TTITLE11=Feel Me
TTITLE12=Outro
TTITLE13=Freestyle Break 1
TTITLE14=Freestyle Break 2
TTITLE15=Freestyle Break 3
TTITLE16=Freestyle Break 4
TTITLE17=Act Right (Bonus Track)
EXTD=
EXTT0=
EXTT1=
EXTT2=
EXTT3=
EXTT4=
EXTT5=
EXTT6=
EXTT7=
EXTT8=
EXTT9=
EXTT10=
EXTT11=
EXTT12=
EXTT13=
EXTT14=
EXTT15=
EXTT16=
EXTT17=
PLAYORDER=
